<?xml version="1.0" standalone="no"?>
<!DOCTYPE svg PUBLIC "-//W3C//DTD SVG 20010904//EN"
 "http://www.w3.org/TR/2001/REC-SVG-20010904/DTD/svg10.dtd">
<svg version="1.0" xmlns="http://www.w3.org/2000/svg"
 width="1008.000000pt" height="428.000000pt" viewBox="0 0 1008.000000 428.000000"
 preserveAspectRatio="xMidYMid meet">

<g transform="translate(0.000000,428.000000) scale(0.100000,-0.100000)"
fill="#1089FF" stroke="none">
<path d="M0 2140 l0 -2140 5040 0 5040 0 0 2140 0 2140 -5040 0 -5040 0 0
-2140z m1640 1321 c150 -37 256 -87 396 -187 73 -52 138 -94 143 -94 11 0 63
73 74 103 10 26 36 21 49 -10 15 -36 47 -109 91 -204 62 -135 97 -217 97 -228
0 -6 4 -11 8 -11 5 0 9 -6 9 -12 0 -7 17 -48 37 -91 24 -48 35 -82 29 -88 -6
-6 -80 -2 -194 10 -101 10 -191 19 -199 19 -68 3 -320 37 -320 44 0 5 18 33
40 62 22 29 40 59 40 67 0 15 -22 32 -164 132 -93 66 -208 106 -303 107 -67 0
-193 -21 -207 -36 -8 -7 -16 -11 -19 -8 -3 3 -34 -13 -70 -36 -61 -38 -125
-105 -119 -123 1 -5 -1 -6 -6 -3 -12 7 -58 -80 -67 -129 -14 -70 -15 -78 -15
-155 -1 -44 5 -93 14 -119 31 -87 69 -161 79 -154 5 3 7 1 4 -4 -9 -15 40 -66
55 -57 7 4 8 3 4 -4 -4 -7 11 -24 36 -42 24 -17 50 -36 58 -43 8 -7 35 -25 60
-41 24 -16 49 -33 54 -37 23 -19 194 -146 246 -183 30 -22 60 -39 67 -39 7 0
10 -4 7 -8 -2 -4 5 -13 16 -19 33 -18 27 -31 -78 -173 -24 -31 -40 -62 -37
-67 4 -6 2 -9 -3 -8 -10 3 -62 -55 -62 -70 0 -22 -34 -22 -59 1 -14 13 -98 75
-186 137 -88 63 -169 122 -179 132 -11 10 -24 18 -28 18 -8 0 -84 55 -98 71
-3 3 -35 26 -71 52 -37 26 -72 54 -79 62 -7 8 -17 12 -23 8 -5 -3 -7 -1 -3 5
3 6 0 16 -7 24 -30 30 -144 247 -150 284 -1 10 -5 24 -9 29 -3 6 -8 26 -11 45
-3 19 -10 58 -14 85 -12 74 -5 277 10 301 3 6 9 26 12 44 3 18 10 41 16 51 5
11 7 19 3 19 -3 0 -2 6 3 13 6 6 13 25 17 40 4 16 39 76 79 134 40 58 78 115
86 127 14 22 185 159 195 157 4 -1 32 12 62 29 31 17 63 32 73 33 9 1 21 6 27
9 6 4 26 10 44 13 18 3 38 9 44 13 40 25 298 28 396 3z m1828 -106 l52 -16 0
-45 c0 -40 -2 -45 -17 -39 -51 20 -172 45 -217 45 -73 0 -182 -26 -246 -57
-67 -32 -155 -119 -192 -189 -67 -124 -84 -333 -38 -473 25 -80 79 -168 99
-163 7 1 10 -2 7 -7 -16 -26 120 -107 224 -132 84 -20 252 -16 325 9 33 12 60
20 61 19 1 -1 4 -20 5 -42 l4 -39 -60 -20 c-83 -27 -292 -28 -385 -2 -36 10
-72 19 -80 19 -8 1 -17 4 -20 7 -3 3 -25 18 -50 32 -59 34 -134 109 -167 167
-15 25 -30 48 -33 51 -3 3 -6 12 -7 20 -1 8 -10 42 -19 75 -24 83 -24 295 0
384 61 223 209 362 440 411 59 13 252 4 314 -15z m382 -257 l-1 -258 331 0
330 0 0 260 0 260 40 0 40 0 0 -575 0 -575 -40 0 -40 0 0 275 0 275 -330 0
-330 0 0 -275 0 -275 -40 0 -40 0 0 576 0 575 41 -3 40 -3 -1 -257z m1690 222
l0 -40 -290 0 -290 0 0 -225 0 -225 265 0 265 0 0 -35 0 -35 -265 0 -265 0 0
-240 0 -240 304 0 304 0 4 -35 4 -35 -348 0 -348 0 0 575 0 575 330 0 330 0 0
-40z m770 15 c148 -45 274 -144 330 -258 44 -92 60 -167 60 -287 0 -165 -37
-283 -120 -388 -22 -27 -37 -52 -35 -56 3 -3 2 -4 -1 -1 -4 2 -23 -8 -43 -24
-43 -34 -110 -71 -129 -71 -7 0 -10 -5 -6 -12 4 -6 3 -9 -2 -6 -5 3 -38 0 -74
-8 -43 -9 -135 -14 -270 -14 l-205 0 3 576 2 577 218 -6 c161 -4 231 -10 272
-22z m740 -393 c0 -458 2 -481 59 -559 35 -48 83 -85 116 -87 13 0 21 -4 19
-8 -9 -14 113 -30 180 -25 86 8 182 52 225 104 64 78 65 84 68 558 l3 430 41
0 40 0 -1 -421 c0 -455 -4 -493 -55 -581 -24 -40 -109 -123 -127 -123 -5 0 -6
-4 -3 -10 3 -5 0 -7 -7 -5 -8 3 -33 -1 -56 -9 -63 -23 -177 -30 -262 -17 -89
14 -168 50 -218 100 -20 20 -40 35 -45 33 -5 -1 -6 2 -2 8 4 6 0 21 -8 34 -8
12 -23 47 -33 77 -16 47 -18 104 -22 472 -2 231 -1 425 2 433 3 9 20 14 46 14
l40 0 0 -418z m1120 -124 l0 -538 290 0 290 0 0 -35 0 -35 -330 0 -330 0 0
576 0 575 40 -3 41 -3 -1 -537z m1470 502 l0 -40 -290 0 -290 0 0 -225 0 -225
265 0 265 0 0 -35 0 -35 -265 0 -265 0 0 -240 0 -240 305 0 305 0 0 -35 0 -35
-347 0 -348 0 2 572 c2 315 3 574 3 576 0 1 149 2 330 2 l330 0 0 -40z m-7895
-719 c28 -20 52 -39 53 -43 2 -5 8 -6 13 -2 5 3 9 0 9 -5 0 -12 81 -67 93 -63
4 1 7 -2 7 -7 0 -6 66 -56 146 -113 80 -57 157 -113 172 -126 15 -12 43 -33
62 -44 19 -12 41 -29 48 -38 27 -32 102 -148 102 -157 0 -5 9 -19 21 -32 20
-21 77 -170 84 -216 1 -11 6 -45 10 -75 4 -30 9 -58 11 -61 4 -8 -12 -222 -21
-263 -3 -16 -10 -37 -15 -47 -6 -10 -10 -24 -10 -32 0 -8 -12 -41 -27 -73 -14
-33 -27 -64 -29 -71 -1 -7 -15 -26 -31 -43 -15 -16 -48 -61 -73 -98 -43 -64
-61 -82 -155 -153 -22 -16 -48 -36 -57 -44 -10 -8 -18 -13 -18 -11 0 2 -26 -9
-57 -25 -31 -16 -65 -29 -75 -29 -12 0 -16 -4 -12 -12 4 -6 3 -8 -3 -5 -5 3
-29 -1 -54 -10 -60 -21 -164 -33 -279 -34 -93 0 -213 26 -305 66 -50 21 -94
37 -102 37 -4 -1 -17 7 -28 17 -11 10 -47 35 -80 56 -33 21 -63 42 -66 47 -7
11 -111 78 -120 78 -7 0 -58 -74 -61 -87 -3 -16 -33 -31 -44 -22 -6 5 -26 42
-43 81 -18 40 -41 91 -52 114 -10 23 -19 44 -19 47 0 3 -23 53 -50 110 -27 57
-50 109 -50 116 0 7 -5 9 -12 5 -6 -4 -8 -3 -4 4 3 6 -10 45 -31 86 -27 54
-34 79 -26 87 7 7 64 5 199 -10 200 -22 376 -39 459 -45 27 -2 51 -8 53 -14 3
-10 -31 -68 -48 -82 -3 -3 -14 -16 -23 -29 -16 -24 -9 -51 15 -51 5 0 23 -13
41 -30 18 -16 36 -30 40 -30 5 0 34 -20 66 -44 79 -61 117 -77 240 -98 173
-30 369 45 472 181 53 72 68 109 84 211 14 94 7 178 -19 228 -9 18 -14 32 -11
32 6 0 -32 75 -60 117 -23 34 -79 81 -189 158 -38 26 -74 52 -80 56 -59 49
-102 77 -111 72 -5 -4 -7 -3 -3 2 4 4 -23 29 -60 56 -37 26 -71 52 -77 56 -5
5 -31 24 -57 42 -27 19 -48 39 -48 45 0 14 25 53 84 131 25 33 57 78 72 100
39 58 65 85 78 78 6 -3 34 -22 61 -42z m3983 -796 l52 -16 0 -45 c0 -40 -2
-45 -17 -39 -153 60 -343 53 -479 -18 -79 -42 -163 -141 -202 -242 -58 -148
-49 -363 20 -499 51 -100 169 -186 298 -217 86 -21 253 -16 324 10 33 11 61
21 63 21 1 0 3 -20 3 -44 l0 -43 -62 -19 c-85 -25 -285 -25 -378 0 -132 35
-219 90 -289 183 -21 29 -41 50 -43 48 -2 -2 -4 4 -5 13 -1 9 -10 42 -21 72
-44 121 -51 312 -16 446 51 198 213 354 414 399 82 18 264 13 338 -10z m-2818
-129 c41 -74 79 -132 84 -128 5 3 6 1 3 -5 -3 -5 38 -86 91 -179 l97 -170 79
137 c43 76 78 141 76 145 -1 4 3 10 8 13 19 12 152 253 145 263 -3 6 -1 8 4 5
6 -4 16 7 23 23 11 27 17 30 60 30 44 0 48 -2 46 -24 0 -13 -4 -24 -8 -23 -6
2 -318 -518 -318 -529 0 -2 -16 -28 -35 -58 l-35 -55 0 -229 0 -230 -41 -4
c-22 -2 -42 -2 -45 1 -2 2 -4 108 -4 235 0 214 -2 233 -20 256 -11 14 -20 28
-20 31 0 3 -81 144 -180 313 -99 169 -180 309 -180 312 0 2 21 4 48 4 l47 0
75 -134z m1028 67 c26 -37 55 -75 65 -85 9 -10 17 -21 17 -24 0 -3 33 -50 73
-105 39 -56 79 -110 87 -122 8 -12 76 -107 150 -212 75 -104 168 -237 208
-294 l72 -105 0 507 0 507 40 0 40 0 0 -575 0 -575 -39 0 c-39 0 -41 2 -114
105 -41 57 -78 101 -82 97 -5 -4 -6 -2 -2 3 3 6 -26 56 -65 110 -39 55 -98
138 -131 185 -60 85 -88 120 -72 90 5 -8 4 -11 0 -7 -5 4 -10 14 -11 22 -2 11
-242 361 -273 397 -3 4 -4 -220 -1 -497 l5 -505 -42 0 -43 0 0 575 0 575 35 0
c32 0 39 -6 83 -67z"/>
<path d="M5900 2780 l0 -503 163 6 c203 8 302 33 359 90 14 14 28 24 31 21 8
-8 73 77 101 133 37 73 56 163 56 263 0 152 -46 275 -135 359 -101 96 -181
121 -407 128 l-168 6 0 -503z"/>
</g>
</svg>
